<?xml version="1.0" encoding="UTF-8"?>
<svg id="Livello_2" data-name="Livello 2" xmlns="http://www.w3.org/2000/svg" viewBox="0 0 1200 832">
  <defs>
    <style>
      .cls-1 {
        fill: none;
        stroke: #000;
        stroke-miterlimit: 10;
      }
    </style>
  </defs>
  <path class="cls-1" d="M1117.43,409.02c-.63.37-1.65.9-3.14,1.45-1.03.38-1.71,1.39-1.66,2.49.05,1.2.07,2.6-.12,3.05-.34.83-5.36,3.13-5.53,4.4s-.68,5.96.43,7.74,1.28,17.45,1.45,19.15,7.4,4.09,8.09,5.96-.43,4.43,4.43,4.26,6.98-.34,8.43-4.68,2.89-6.89,1.19-8.51-3.15-1.36-4.51-.43-.94,2.13-5.45,2.04-2.47-5.62-2.47-5.62c0,0,1.01-1.42,2.82.58.7.77,1.9.78,2.56-.02,2.22-2.72,5.64-7.92,5.51-9.66-.17-2.38-5.7-8.94-5.79-11.23s1.11-9.79-.17-10.38c-.84-.39-2.87-.75-4.15-.95-.66-.1-1.33.02-1.91.37Z"/>
  <path class="cls-1" d="M1127.79,466.12c-.22-.63-.82-1.06-1.48-1.11-1.99-.16-6.58-.45-7.84.08-1.62.68-2.81,4.51-3.23,4.6s-4.51-.34-5.28.6-1.7,3.32.85,5.7c0,0-2.38,4.26-1.28,5.02s3.83,5.28,6.04,4.43,4.51-4.34,4.51-4.34l4.01.1c1.39.04,2.54-1.09,2.53-2.48l-.07-9.37s1.98-1.15,1.24-3.22Z"/>
  <path class="cls-1" d="M1120.21,493.19c-.6-.04-1.07-.56-1.01-1.17.1-.95-.03-2.21-1.31-2.4-2.11-.32-2.36,1.34-3.06,1.4s-3.38.7-6.19-2.43-4.02-1.91-5.43-.83-.38,3-1.66,3.26-4.69-.3-7.09-2.3c-1.91-1.6-2.87-.64-4.09.64s-6.89,6.06-7.28,7.47.06,4.02-.51,4.72-3,2.17-2.87,3.57-.32,2.74,5.55,2.81,5.55-.32,5.94.96-4.09,3.19-4.47,4.91-1.28,6,1.21,6.51,3.35,1.87,13.3-4.9c.3-.21.68-.3,1.04-.24,1.5.23,5.59.79,6.84.17,1.54-.77,10.08-7.28,10.09-8.87s-.44-6.06,1.41-6.7,5.49-1.15,5.81-2.68c.3-1.45.55-3.47-6.24-3.9Z"/>
  <path class="cls-1" d="M1075.33,510.98c-.91-.62-1.45-1.66-1.39-2.75.12-2.24.03-5.86-1.81-6.04-2.68-.26-6.64.38-6.26,2.17s2.17,4.72,1.15,5.62-5.36.89-10.6,2.04-9.32,6.26-10.47,7.15.38,6.13-1.15,7.02-4.34,2.43-7.28-3.96c0,0-10.34,1.53-10.72,3.32s2.55,7.4,1.4,9.45-5.49,4.34-5.36,6.13-1.79,4.34,1.53,6.26,5.11,1.79,5.11,5.74c0,0-3.96,2.55-4.47,3.96s-2.43,4.47-.51,6.26,6.13-.89,6.13-.89c0,0,2.43-1.28,4.21-.13s1.91,2.43,2.81,3.19,4.6.26,5.23,1.28.14.89,5.3,1.79c0,0,3.12,5.11,2.48,7.02s-3.83.89-3.19,3.32,2.68,4.47,4.72,2.81,2.3-3.57,2.94-3.06,4.57,3.3,5.08,2.57.54-4.74,1.18-6.28,2.17-4.47,2.43-7.02c.08-.8.12-1.5.14-2.08.04-1.13.94-2.03,2.07-2.06h.07c1.35-.04,2.35-1.25,2.14-2.58-.25-1.57-.68-3.45-1.35-4.38-1.55-2.12,5.49-2.94,6.13-5.23s2.81-10.47.96-12.13-3-4.85-1.47-6.13,6.76-5.49,7.21-7.02,1.21-10.09,0-11.74c-.76-1.04-2.9-2.59-4.39-3.59Z"/>
  <path class="cls-1" d="M1111.63,544.88c1.01.41,2.12-.3,2.22-1.39.15-1.69.53-3.96,1.43-3.64,1.4.51,2.17.13,2.04,5.36-.04,1.79-.06,3.15-.05,4.16,0,1.25-.79,2.33-1.96,2.8-.85.34-1.95,1.06-3.23,2.49-3.19,3.57-3.57-.26-6,.51-2.28.72-9.3,1.1-12.26,9.42-.35.98-.14,2.07.5,2.89,1.13,1.44,2.78,3.82,2.44,5.18-.51,2.04-2.81,2.94-3.45,4.72s.51,4.98-1.15,5.49-4.6-.64-5.87.64-3.7,7.02-4.98,7.02-3.7-2.55-5.49-2.81-3.06,2.94-9.19,1.91-3.32-4.09-3.32-4.09c0,0,6.77-.77,6.77-2.17s-1.79-4.47-.77-5.49,4.98-2.43,4.6-4.09-3.32-2.68-2.55-3.83,2.3.51,7.53-6.26,6.26-7.4,6.26-7.4c0,0-2.3-4.6-.64-5.74s4.6-.89,6.38-2.55,2.68-4.21,4.72-2.94,6.5,1.28,7.52.77,1.16-4.21,4.22-2.94c1.76.73,3.14,1.51,4.27,1.97Z"/>
  <path class="cls-1" d="M1105.65,567.28c-1.02,1.53-.66,3.59.79,4.72,2.27,1.78,5.27,4.4,5.05,5.68-.34,2.04-4.43,1.87-5.45,3.4s-2.21,8.51.68,9.45,6.3-1.79,7.83-.77,4.77,3.06,4.94,6.47-1.87,6.13-3.4,6.47-3.74,3.23-2.89,4.6,7.15,5.62,7.15,6.47,0,6.47,4.26,8.17,4.43-2.55,6.64-1.02,8.68,2.89,14.64-.34,6.81-4.77,8.51-3.4,2.55,5.45,2.04,6.64-5.11,4.26-3.74,6.81,8.51,3.4,9.87,5.28.17,5.45,1.36,6.64,6.47-.85,7.66,2.38.34,8,3.06,8,5.62-2.21,4.6-4.26-3.23-4.09-2.55-7.49,2.72-4.09,3.74-4.09,1.02-14.47,1.02-14.47c0,0-2.72-.85-2.38-2.38s2.38-8.51-.34-8.68-8.17,1.53-7.83-1.02.85-7.15,4.94-9.36,1.19-17.87,1.19-17.87c0,0-3.57-2.04-4.26-4.77s-6.13-.85-11.4-3.74-20.77-12.77-23.32-12.77-7.83.68-10.04,7.32-6.3,3.74-9.7-.51c-3.08-3.85-7.55-9.22-12.65-1.55Z"/>
  <path class="cls-1" d="M1093.87,600.74s-10.98.6-12.6,9.19,5.62,4.94,5.7,4.43-1.26-3.74.48-4.6,5.05-.49,7.35-1.61,4.43-3.67,2.81-4.94-3.74-1.7-3.74-2.47Z"/>
  <path class="cls-1" d="M1073.11,604.66c0-.34,1.62-4.09,5.7-3.91s3.57,1.36,3.49,2.3-7.23,9.45-8.77,10.13-9.97,1.19-10.86.34-.46-2.64,1.24-3.06,3.57-1.52,3.83-2.29-.85-1.8,1.79-2.05,3.57-1.45,3.57-1.45Z"/>
  <path class="cls-1" d="M1042.64,603.72s.6,4,0,4.85-1.96,2.55-.51,3.06,5.11-.77,6.3,0,1.11,2,3.91,2.32,4.09-3.34,4.94-3.34,3.4-.26,3.23-3.15-1.96-3.74-3.74-3.74-5.02,0-6.3.68-3.66-.34-3.74-.68-4.09,0-4.09,0Z"/>
  <path class="cls-1" d="M989.28,574.96c-.09.25-3.15-.51-4.17,3.66,0,0-1.19.26-1.45,1.11s-1.11,3.15,1.7,3.66,5.11-.51,5.96.94.6,4.6,2.64,6.21,18.38,10.89,19.66,10.89,2.38-1.12,4.26-.69,3.83,2.34,5.62,2.83,3.83-.61,5.53.49,5.7.6,5.96,0,1.28-6.47-2.38-6.72-5.96-.51-6.81-2.64-.6-5.02-5.96-5.7-3.15-2.64-3.83-2.64-3.83.17-4.17-1.19,1.02-4.26-.94-4.43-5.53.26-5.53-.77.85-3.15-2.13-3.4-4.17-1.7-4.34-3.4-2.04-2.81-3.57-2.72-5.11,1.96-6.04,4.51Z"/>
  <path class="cls-1" d="M960.17,504.87s-2.3.89-1.79,3.19,5.74,5.74,6.26,7.79-1.53,13.91,1.53,16.85,6.89,6.89,6.13,8.55-1.02,7.02-2.3,7.02-2.17,1.91-.13,4.72,3.06,5.87,4.98,5.49.89-2.43,4.21-1.91,2.81,5.49,2.81,5.49c0,0-3.06,3.57-1.91,5.23s7.15,6.77,8.17,5.11,1.15-5.49,1.91-6.38,4.09-6,7.02-6.89.89-3.96-1.02-5.49-2.43-4.47-1.53-6.64-.64-5.36-2.3-6.13-6.26,1.15-9.83-5.49-2.68-16.72-2.68-16.72c0,0-.51-4.21-5.36-6.77s-3.83-3.83-4.6-3.96-2.17,0-3.7,0-3.83-3.96-5.87-3.06Z"/>
  <path class="cls-1" d="M1166.47,739.89c-.51.9-5.87.64-5.87.64,0,0-5.75.38-7.03,1.02-1.27.64,0,2.56,0,2.56l.77.51.64,1.66-1.15,1.78s.26,5.62,0,6.39c-.26.76-4.85,7.53-11.36,13.27-6.51,5.75-5.36,7.92-6.77,9.58-1.4,1.66-3.96-.51-7.66-.51s-4.72,8.17-6.38,9.32c-1.66,1.15-5.11,1.78-5.75,2.68-.63.89,3.45,2.68,3.71,3.83.25,1.15-5.36,6.64-6.39,7.53-1.02.89-2.68-.64-4.34-1.41-1.66-.76-4.34,5.11-4.59,5.49-.26.39-9.45,1.03-10.09,0-.64-1.02-.12-2.55-2.81-3.32-2.68-.76-3.57,1.28-4.97,2.02-1.41.74-3.71.92-6.13-.1-2.43-1.02-7.41,1.4-11.75-1.02-4.34-2.43-1.78-2.3-3.95-3.07-2.17-.76-1.41-1.78-1.41-2.8s2.17-1.41,1.41-3.07c-.77-1.66-3.2,0-4.22-2.17s-1.53-5.36-1.53-6.76,5.49-5.49,5.87-6.9c.39-1.4-1.53-4.98-3.32-6.51-1.78-1.53-2.42-.25-4.85-.64-2.42-.38,1.15-3.95,2.05-5.36.89-1.4,1.66-4.21-.64-5.23-2.3-1.02-1.92-3.45-2.68-5.36-.77-1.92-5.49-1.66-5.49-1.66,0,0-.35-.02-.91-.05-.69-6.72,1.5-8.93,2.86-13.36,1.37-4.42.35-9.7-.74-11.4-1.08-1.7-1.64-4.09,1.43-7.66,3.06-3.58,40.85-6.47,41.7-7.49s-6.69-69.94-6.69-69.94h0c.41-.08.95-.27,1.56-.54,2.87-1.25,7.34-4.16,7.34-4.16,6.77.43,7.87,3.06,8.34,3.66.47.6-.17,4.26-1.96,5.49-1.78,1.23.3,5.87,2.19,4.55,1.89-1.32,4.71-.89,4.71-.89,1.58,1.36,2.23,3.02,2.48,4.38.25,1.34-.6,2.65-1.94,2.93-1.65.35-3.46,1.06-1.73,2.39,2.8,2.17,1.87,4.64,1.61,5.41-.06.19-.23.57-.44,1.03-.9,1.96-.36,4.29,1.34,5.63l1.91,1.51c4.85,3.83,6.64,3.19,8.94,2.93,2.3-.25,5.61-10.08,5.61-10.85s-3.57-6.38-3.57-9.45,5.36-4.34,7.15-5.1c1.79-.77,2.81-8.43,2.55-10.98-.25-2.55,5.35-4.9,6.13-5.11,2.43-.64,4.47,2.56,4.85,5.11s3.58,3.19,3.58,3.19l1.4,1.15-.38,1.91-1.66,1.79-1.15,1.79.76,3.83,1.15,1.79,2.05.63s1.27,2.3,1.53,2.81c.25.51.12,3.32.12,4.34s-.89,1.54-1.4,2.17c-.51.64-3.19,1.02-4.98.9-1.79-.13-1.79.89-2.35,2.29-.57,1.41.44,2.05,1.33,2.43.89.38,3.32-.13,4.34.13,1.02.25,1.92,1.66,2.17,2.55.26.89-.89,3.83-1.91,5.36-1.02,1.53-.13,4.85,1.66,8.05,1.78,3.19,2.55,1.53,4.85,3.31,2.29,1.79.12,2.17.12,3.96s1.15.9,1.92,2.81c.77,1.92.38,4.6-.89,6.77-1.28,2.17-1.03,3.95,0,7.15,1.02,3.19,9.83,16.34,10.34,17.87.51,1.53-.13,9.7-.64,10.59Z"/>
  <path class="cls-1" d="M1094.13,712.32c-.85,1.02-38.64,3.91-41.7,7.49-3.07,3.57-2.51,5.96-1.43,7.66,1.09,1.7,2.11,6.98.74,11.4-1.36,4.43-3.55,6.64-2.86,13.36-2.03-.11-6.91-.39-8.41-.59-1.92-.26-2.43,1.27-4.09,1.66-1.66.38-3.19-1.53-3.95-2.43-.77-.89-3.71,0-6.52-.13-2.8-.12-2.93-.25-4.34-1.53-1.4-1.27-1.4-.38-4.08-.89s-15.06,12.13-18.26,13.28c-3.19,1.14-5.36-2.05-5.36-2.05,0,0-6.13-6.76-13.15-2.04-7.02,4.72-14.17,8.68-16.46,8.68s-5.11-6.51-5.49-8.17c-.39-1.66-4.34-.25-5.75-1.15-1.4-.89-.13-8.81,0-10.47.13-1.66,3.58-.63,6.51-1.78,2.94-1.15,5.62-12.51,6.9-14.94,1.27-2.42,3.06-13.66,1.78-18.25-1.27-4.6-3.95-14.56-3.44-15.45.51-.89,3.44-.77,4.97-1.28,1.54-.51,0-4.59,0-6s1.28-1.15,2.35-2.04c1.06-.89-.56-8,0-9.19.55-1.19,3.91-7.83,5.65-11.11,1.75-3.27,9.75-5.19,9.75-5.19,0,0,13.83-5.87,15.87-7.11,2.04-1.25,11.02-10.55,13.92-10.72,2.89-.17,2.89-1.74,3.32-3.83.42-2.08,1.61-3.66,2.46-4.04.85-.38,15.32.08,16-.94.68-1.02,6.13-3.62,6.13-3.62,6.17-.25,7.66,2.43,8.04,2.98.39.56-.68,7.02,0,9.41.68,2.38,6.9,5.57,10.56,5.87,3.66.3,3.15,1.23,5.06,2.89,1.92,1.66,2.81-.89,4.34-3.61,1.53-2.73,5.79-6.64,6.94-6.73.93-.07,3.7.31,5.67.55.46.05.88.1,1.22.13.12,0,.26,0,.42-.03h0s7.54,68.93,6.69,69.95Z"/>
</svg>